<mxfile host="Electron" modified="2024-09-02T13:40:15.201Z" agent="Mozilla/5.0 (Macintosh; Intel Mac OS X 10_15_7) AppleWebKit/537.36 (KHTML, like Gecko) draw.io/22.0.3 Chrome/114.0.5735.289 Electron/25.8.4 Safari/537.36" etag="rymLHAJLKL4SPxRXeuh6" version="22.0.3" type="device">
  <diagram name="Страница — 1" id="jiPFFGytlYpe6D6BX1NG">
    <mxGraphModel dx="878" dy="397" grid="1" gridSize="10" guides="1" tooltips="1" connect="1" arrows="1" fold="1" page="1" pageScale="1" pageWidth="827" pageHeight="1169" math="0" shadow="0">
      <root>
        <mxCell id="0" />
        <mxCell id="1" parent="0" />
        <mxCell id="FZSDExhQGC8gARH0cAps-16" style="edgeStyle=orthogonalEdgeStyle;rounded=0;orthogonalLoop=1;jettySize=auto;html=1;exitX=0.5;exitY=1;exitDx=0;exitDy=0;" edge="1" parent="1" source="FZSDExhQGC8gARH0cAps-1" target="FZSDExhQGC8gARH0cAps-2">
          <mxGeometry relative="1" as="geometry" />
        </mxCell>
        <mxCell id="FZSDExhQGC8gARH0cAps-1" value="start" style="ellipse;whiteSpace=wrap;html=1;" vertex="1" parent="1">
          <mxGeometry x="320" y="100" width="120" height="50" as="geometry" />
        </mxCell>
        <mxCell id="FZSDExhQGC8gARH0cAps-17" style="edgeStyle=orthogonalEdgeStyle;rounded=0;orthogonalLoop=1;jettySize=auto;html=1;exitX=0.5;exitY=1;exitDx=0;exitDy=0;entryX=0.5;entryY=0;entryDx=0;entryDy=0;" edge="1" parent="1" source="FZSDExhQGC8gARH0cAps-2" target="FZSDExhQGC8gARH0cAps-6">
          <mxGeometry relative="1" as="geometry" />
        </mxCell>
        <mxCell id="FZSDExhQGC8gARH0cAps-2" value="Заказ создан" style="rounded=0;whiteSpace=wrap;html=1;" vertex="1" parent="1">
          <mxGeometry x="320" y="170" width="120" height="60" as="geometry" />
        </mxCell>
        <mxCell id="FZSDExhQGC8gARH0cAps-20" style="edgeStyle=orthogonalEdgeStyle;rounded=0;orthogonalLoop=1;jettySize=auto;html=1;exitX=1;exitY=0.5;exitDx=0;exitDy=0;entryX=0.5;entryY=0;entryDx=0;entryDy=0;" edge="1" parent="1" source="FZSDExhQGC8gARH0cAps-6" target="FZSDExhQGC8gARH0cAps-8">
          <mxGeometry relative="1" as="geometry" />
        </mxCell>
        <mxCell id="FZSDExhQGC8gARH0cAps-21" style="edgeStyle=orthogonalEdgeStyle;rounded=0;orthogonalLoop=1;jettySize=auto;html=1;exitX=0;exitY=0.5;exitDx=0;exitDy=0;entryX=0.5;entryY=0;entryDx=0;entryDy=0;" edge="1" parent="1" source="FZSDExhQGC8gARH0cAps-6" target="FZSDExhQGC8gARH0cAps-7">
          <mxGeometry relative="1" as="geometry" />
        </mxCell>
        <mxCell id="FZSDExhQGC8gARH0cAps-6" value="Можем ли мы сделать экспертизу?" style="shape=parallelogram;perimeter=parallelogramPerimeter;whiteSpace=wrap;html=1;fixedSize=1;" vertex="1" parent="1">
          <mxGeometry x="300" y="250" width="180" height="70" as="geometry" />
        </mxCell>
        <mxCell id="FZSDExhQGC8gARH0cAps-23" style="edgeStyle=orthogonalEdgeStyle;rounded=0;orthogonalLoop=1;jettySize=auto;html=1;exitX=0.5;exitY=1;exitDx=0;exitDy=0;entryX=0.5;entryY=0;entryDx=0;entryDy=0;" edge="1" parent="1" source="FZSDExhQGC8gARH0cAps-7" target="FZSDExhQGC8gARH0cAps-9">
          <mxGeometry relative="1" as="geometry" />
        </mxCell>
        <mxCell id="FZSDExhQGC8gARH0cAps-7" value="Да" style="rounded=0;whiteSpace=wrap;html=1;" vertex="1" parent="1">
          <mxGeometry x="170" y="320" width="120" height="60" as="geometry" />
        </mxCell>
        <mxCell id="FZSDExhQGC8gARH0cAps-22" style="edgeStyle=orthogonalEdgeStyle;rounded=0;orthogonalLoop=1;jettySize=auto;html=1;exitX=1;exitY=0.5;exitDx=0;exitDy=0;entryX=1;entryY=0.5;entryDx=0;entryDy=0;" edge="1" parent="1" source="FZSDExhQGC8gARH0cAps-8" target="FZSDExhQGC8gARH0cAps-1">
          <mxGeometry relative="1" as="geometry" />
        </mxCell>
        <mxCell id="FZSDExhQGC8gARH0cAps-8" value="нет" style="rounded=0;whiteSpace=wrap;html=1;" vertex="1" parent="1">
          <mxGeometry x="500" y="310" width="120" height="60" as="geometry" />
        </mxCell>
        <mxCell id="FZSDExhQGC8gARH0cAps-24" style="edgeStyle=orthogonalEdgeStyle;rounded=0;orthogonalLoop=1;jettySize=auto;html=1;exitX=0.5;exitY=1;exitDx=0;exitDy=0;entryX=0.5;entryY=0;entryDx=0;entryDy=0;" edge="1" parent="1" source="FZSDExhQGC8gARH0cAps-9" target="FZSDExhQGC8gARH0cAps-10">
          <mxGeometry relative="1" as="geometry" />
        </mxCell>
        <mxCell id="FZSDExhQGC8gARH0cAps-9" value="Необходима оплата в течении 3-х дней" style="rounded=0;whiteSpace=wrap;html=1;" vertex="1" parent="1">
          <mxGeometry x="330" y="470" width="120" height="60" as="geometry" />
        </mxCell>
        <mxCell id="FZSDExhQGC8gARH0cAps-25" style="edgeStyle=orthogonalEdgeStyle;rounded=0;orthogonalLoop=1;jettySize=auto;html=1;exitX=0;exitY=0.5;exitDx=0;exitDy=0;" edge="1" parent="1" source="FZSDExhQGC8gARH0cAps-10" target="FZSDExhQGC8gARH0cAps-11">
          <mxGeometry relative="1" as="geometry" />
        </mxCell>
        <mxCell id="FZSDExhQGC8gARH0cAps-26" style="edgeStyle=orthogonalEdgeStyle;rounded=0;orthogonalLoop=1;jettySize=auto;html=1;exitX=1;exitY=0.5;exitDx=0;exitDy=0;entryX=0.5;entryY=0;entryDx=0;entryDy=0;" edge="1" parent="1" source="FZSDExhQGC8gARH0cAps-10" target="FZSDExhQGC8gARH0cAps-12">
          <mxGeometry relative="1" as="geometry" />
        </mxCell>
        <mxCell id="FZSDExhQGC8gARH0cAps-10" value="Оплата прошла?" style="shape=parallelogram;perimeter=parallelogramPerimeter;whiteSpace=wrap;html=1;fixedSize=1;" vertex="1" parent="1">
          <mxGeometry x="330" y="585" width="120" height="60" as="geometry" />
        </mxCell>
        <mxCell id="FZSDExhQGC8gARH0cAps-28" style="edgeStyle=orthogonalEdgeStyle;rounded=0;orthogonalLoop=1;jettySize=auto;html=1;exitX=0.5;exitY=1;exitDx=0;exitDy=0;entryX=0.5;entryY=0;entryDx=0;entryDy=0;" edge="1" parent="1" source="FZSDExhQGC8gARH0cAps-11" target="FZSDExhQGC8gARH0cAps-13">
          <mxGeometry relative="1" as="geometry" />
        </mxCell>
        <mxCell id="FZSDExhQGC8gARH0cAps-11" value="Да" style="rounded=0;whiteSpace=wrap;html=1;" vertex="1" parent="1">
          <mxGeometry x="200" y="700" width="120" height="60" as="geometry" />
        </mxCell>
        <mxCell id="FZSDExhQGC8gARH0cAps-27" style="edgeStyle=orthogonalEdgeStyle;rounded=0;orthogonalLoop=1;jettySize=auto;html=1;exitX=1;exitY=0.5;exitDx=0;exitDy=0;entryX=1;entryY=0.5;entryDx=0;entryDy=0;" edge="1" parent="1" source="FZSDExhQGC8gARH0cAps-12" target="FZSDExhQGC8gARH0cAps-1">
          <mxGeometry relative="1" as="geometry">
            <Array as="points">
              <mxPoint x="640" y="730" />
              <mxPoint x="640" y="125" />
            </Array>
          </mxGeometry>
        </mxCell>
        <mxCell id="FZSDExhQGC8gARH0cAps-12" value="нет" style="rounded=0;whiteSpace=wrap;html=1;" vertex="1" parent="1">
          <mxGeometry x="480" y="700" width="120" height="60" as="geometry" />
        </mxCell>
        <mxCell id="FZSDExhQGC8gARH0cAps-29" style="edgeStyle=orthogonalEdgeStyle;rounded=0;orthogonalLoop=1;jettySize=auto;html=1;exitX=0.5;exitY=1;exitDx=0;exitDy=0;entryX=0.5;entryY=0;entryDx=0;entryDy=0;" edge="1" parent="1" source="FZSDExhQGC8gARH0cAps-13" target="FZSDExhQGC8gARH0cAps-14">
          <mxGeometry relative="1" as="geometry" />
        </mxCell>
        <mxCell id="FZSDExhQGC8gARH0cAps-13" value="Делаем экспертизу" style="rounded=0;whiteSpace=wrap;html=1;" vertex="1" parent="1">
          <mxGeometry x="320" y="820" width="120" height="60" as="geometry" />
        </mxCell>
        <mxCell id="FZSDExhQGC8gARH0cAps-30" style="edgeStyle=orthogonalEdgeStyle;rounded=0;orthogonalLoop=1;jettySize=auto;html=1;exitX=0.5;exitY=1;exitDx=0;exitDy=0;entryX=0.5;entryY=0;entryDx=0;entryDy=0;" edge="1" parent="1" source="FZSDExhQGC8gARH0cAps-14" target="FZSDExhQGC8gARH0cAps-15">
          <mxGeometry relative="1" as="geometry" />
        </mxCell>
        <mxCell id="FZSDExhQGC8gARH0cAps-14" value="Отправляем отчет покупателю" style="rounded=0;whiteSpace=wrap;html=1;" vertex="1" parent="1">
          <mxGeometry x="320" y="910" width="120" height="60" as="geometry" />
        </mxCell>
        <mxCell id="FZSDExhQGC8gARH0cAps-15" value="конец" style="ellipse;whiteSpace=wrap;html=1;" vertex="1" parent="1">
          <mxGeometry x="320" y="1010" width="120" height="80" as="geometry" />
        </mxCell>
      </root>
    </mxGraphModel>
  </diagram>
</mxfile>
